<svg version="1" xmlns="http://www.w3.org/2000/svg" width="885.333" height="885.333" viewBox="0 0 664.000000 664.000000"><path d="M301 1.5c-10 2.2-22.2 8.7-29 15.5-5.9 5.9-12.4 17.1-13.6 23.5-.5 2.7-1.7 4-6.4 6.9-11.5 7.1-21.2 21.1-25 36.2-1.4 5.5-2 11-2 19.1v11.4l-3.2 1.1c-7.3 2.5-22.8 11.2-30.9 17.2-25 18.9-40.1 44.4-43.9 74.8-.6 5.1-1 53.5-1 129.4 0 116.8 0 121.7 1.9 130.3 4.7 21.4 14.6 38.7 31.2 54.6 11.3 10.8 23.4 18.8 38.2 25.1l6.7 2.8V560c0 13.2 1.9 22.3 6.9 32.6 4.4 9.3 13.2 19.3 20.9 23.9 4.1 2.4 5.2 3.6 5.7 6.5 2.1 11.3 14.3 26.6 26.2 32.8 12.2 6.4 18.6 7.4 48.3 7.4 22 .1 27.7-.2 33.5-1.7 21.1-5.3 36.1-19.1 41.5-38.2.8-3.1 2.4-4.7 8-8.6 16.5-11.3 26-32 26-57.1v-8.1l9.6-4.4c27.9-12.8 51-35.9 60.5-60.6 7.6-19.6 7.1-12.3 8.1-118 .5-52.3.7-110.5.5-129.5-.3-33.5-.4-34.8-2.9-44.2-5.4-19.8-14.9-35.9-30.1-50.5-10.8-10.4-19.7-16.5-34-23.3l-10.4-5-.6-12.3c-1-20.4-6-33.5-17-45.3-3.2-3.5-8-7.7-10.7-9.4-4.1-2.6-5.2-4-6.6-8.3-5.7-17.5-17.7-29.4-35.8-35.4-7.9-2.6-8.7-2.7-36.1-3C314.1.1 306 .4 301 1.5zm63.2 9.4c19.1 4.9 30.7 15.9 35.3 33.6.8 3.2 1.6 5.9 1.7 6 .2.1 2.7 1.5 5.5 3 6.9 3.7 15.3 12.5 19.1 20.1 4.8 9.5 6.3 16.5 6.9 32.5l.6 14.6 8.1 3.3c15.8 6.4 27.6 14 39.4 25.4 13.7 13.3 22.2 27.6 27.4 46.6l2.3 8.5-.3 124c-.3 133.4-.2 131.5-5.6 147.1-8.7 25.7-27.4 45.9-55.1 59.5-5.4 2.7-11.6 5.4-13.6 6l-3.6 1.1-.6 15.2c-.4 12.7-.9 16.4-3.1 23.3-4.4 13.7-13.2 24.5-24.8 30.4-2.5 1.3-4 2.8-4.4 4.7-2.4 10.9-6.2 17.8-13.8 25-6.2 5.8-12.7 9.2-22.6 11.8-9.5 2.4-52.7 2.4-61.9-.1-18.3-4.8-30.6-16.3-34.8-32.6-1.8-7-1.8-7-7.6-10.1-3.2-1.7-8.1-5.7-11-8.8-10.8-11.7-14.7-23.5-14.7-44.7 0-12.9-.1-13.4-2.3-14.3-21.9-8.8-32.1-15-44.6-26.7-13.9-13-23.1-27.9-28.3-45.9l-2.3-7.9v-255l2.2-8.8c6.1-24 18.9-43.1 38.6-57.7 8.2-6.2 23.5-14.4 32.5-17.6l5.2-1.8v-13.5c0-15.6 1.5-23.3 6.3-33 3.8-7.9 12.1-16.6 19.7-20.9 5.4-3.1 5.6-3.3 7.4-10.2 2.2-8.8 8.1-17.8 15-22.9 12.7-9.5 19.3-11 50.2-11 20.7-.1 25.2.2 31.6 1.8z"/><path d="M304.1 23.6c-15.9 4.3-24.2 14-25.7 30.2-.6 6.4-.9 7.2-2.8 7.2-3.2 0-11.8 4.3-16 8-4.6 4.1-8.3 10.3-10.7 18.1-1.6 5-1.9 9.3-1.9 24.7v18.7l-6.3 1.8c-18.1 5.3-33.1 13.5-44.9 24.6-12.4 11.6-20.3 24.8-25 41.6l-2.2 8-.4 124.6c-.3 109.5-.1 125.5 1.2 131.3 7.5 32.3 30.4 55.5 66.1 67.2l10 3.3.6 20.3c.3 11.2 1.1 21.7 1.6 23.3 4.4 13.1 13.4 22.3 24.9 25.4l4.2 1.1.7 6.8c1.4 13.7 8.5 23.6 20.4 28.4 5.4 2.2 6.7 2.3 34.6 2.3h29l6.5-3.1c11.7-5.5 17.8-14.5 18.8-27.4l.4-6.7 5.2-1.6c11.7-3.7 19.5-11.5 23.7-23.7 1.9-5.6 2.3-9.1 2.7-26l.4-19.5 8.1-2.3c16.4-4.6 36.2-16.4 46.7-27.8 9.6-10.3 16-21.6 20.2-35.7 2.1-7.1 2.1-8.9 3-129.7.7-90.6.7-124.5-.2-130.2-3.1-21.5-14.2-40.5-31.5-54.4-9.4-7.6-25.8-16.1-37.3-19.4l-8.2-2.4v-16c0-25.3-3.3-36.1-13.6-45.5-4.1-3.7-7.2-5.6-11.7-7l-6.2-1.9-.6-6.9c-1.5-16.3-11-26.7-27.7-30.2-8-1.7-49.4-1.3-56.1.5zm56.8 9.3c7.6 2.4 12.4 6 15.4 11.4 1.9 3.6 2.2 5.7 2.1 14.4l-.1 10.3h3.7c11.3 0 21.8 7.4 26 18.5 2.1 5.5 2.4 8 2.8 28.6l.4 22.7 4.2.5c5.6.8 18.8 5.3 26.1 8.9 22.9 11.4 38.3 29.1 44.7 51.4l2.3 7.9-.3 122c-.4 132.8-.3 129.6-6.1 143.6-10.8 25.7-34.8 43.5-69.3 51.3l-2.8.6v19.3c0 26.3-2.1 35.1-10 42.6-4.2 4-12 7.1-17.7 7.1H377l.6 7.4c1 10.9-.8 16.9-6.5 22.6-7.3 7.2-10.9 8-38.5 8-25.6 0-30.1-.7-37.3-5.9-5.9-4.3-8.6-10.4-8.6-20 0-4.2.3-8.6.7-9.8.6-1.9.2-2.1-6.3-2.5-12.1-.9-20.4-7.7-24.1-19.7-1.7-5.4-2-9.2-2-27.6v-21.4l-5.7-1.1c-12.6-2.6-29.1-9.9-39.9-17.6-7.5-5.3-17.7-16.2-22.3-23.8-1.8-3.1-4.7-9.5-6.5-14.3l-3.1-8.8-.3-117c-.2-72.5.1-121.3.7-128.2 1.8-20.5 8.5-35 22.6-48.8 12.6-12.4 31.3-22.3 48.8-25.8l6.2-1.3.5-23.4c.5-21.8.7-23.9 2.8-28.4 1.2-2.8 3.3-6.4 4.6-8.1 3.6-4.7 11.8-8.7 19-9.2l6.2-.5-.8-5.7c-2.3-15.9 5.2-27.5 19.9-31 2.1-.5 13.5-.9 25.5-1 18.6-.1 22.5.2 27.7 1.8z"/><path d="M260.6 190.2c-1.4 2-1.6 7.7-1.6 47 0 43.5.1 44.9 2 46.8 2.5 2.5 5.5 2.5 8 0 2-2 2-3.1 1.8-48.8l-.3-46.7-4.2-.3c-3.3-.2-4.4.1-5.7 2zM316.7 188.7c-.4.3-.7 24.9-.7 54.5 0 59.4-.1 58.3 6.2 63.2 6.7 5.1 6.3 8.7 6-56.1-.2-34-.8-59.5-1.3-60.5-.7-1.3-2.2-1.8-5.3-1.8-2.3 0-4.6.3-4.9.7zM338.5 189.2c-.3.7-.7 24.9-.9 53.8-.3 28.9-.6 55.4-.8 59-.3 5.6-.1 6.5 1.5 6.8 2.9.6 8.4-4.3 10.1-9 1.5-3.8 1.6-10.6 1.4-57.8l-.3-53.5-5.3-.3c-3.6-.2-5.4.1-5.7 1zM401 249v61.1l5.8-.3 5.7-.3.3-58.5c.1-32.2 0-59.5-.3-60.8-.5-1.9-1.2-2.2-6-2.2H401v61zM237.2 286.9c.3 14 1 15.9 7 20.4 3.8 2.8 11.9 3.4 16.8 1.2 4.8-2.2 5.2-4.7 1.4-8.7-2.4-2.4-3.2-2.6-6.8-2.2-3 .4-4.5.2-5.4-.8-.6-.8-1.2-5.8-1.4-11.9l-.3-10.4-5.8-.3-5.9-.3.4 13zM397.5 348.2c-6.7 2.4-10.5 8.1-10.5 15.8v5.1l5.3-.3 5.2-.3.3-3.7c.5-6.1 6.7-8.5 9.3-3.6 1.2 2.2.8 17.3-.5 20.1-.8 1.6-.3 1.8 5.5 1.5l6.4-.3.3-11c.2-9.8 0-11.5-2-15.5-1.3-2.4-3.7-5.2-5.3-6.2-4-2.2-10.3-3-14-1.6zM244.9 350.3c-1.9 1.2-4.4 4.2-5.6 6.7-2.1 4.1-2.3 5.8-2.3 22 0 19.6.6 22 6 22 5.6 0 6-1.4 6-20.6 0-16.1.2-17.6 2-19.4 2.6-2.6 3.6-2.5 6.5.5 2 1.9 2.5 3.4 2.5 7.5 0 6.3 2.5 9.3 7.3 8.8l3.2-.3.3-9.1c.2-8 0-9.4-2-12.4-3.8-5.6-8.2-8-14.8-8-4.3 0-6.6.6-9.1 2.3zM313.7 349.6c-1.1 1.1-.8 64.4.3 68.6.6 2 2.6 5 4.6 6.7 3.2 2.9 4 3.1 11 3.1 9.1 0 12.6-1.6 15.4-7 1.9-3.8 2-5.5 1.8-37.7l-.3-33.8-5.2-.3-5.3-.3v31.5c0 17.8-.4 32.6-1 34-1.2 3.4-5.4 4.4-8 2.1-1.9-1.7-2-3.5-2.2-34.4l-.3-32.6-5-.3c-2.8-.2-5.4 0-5.8.4zM386.2 389.2c-1.4 1.4-1.6 5.7-.3 7.6.5.9 3 1.2 8.7 1l7.9-.3.3-3.9c.2-2.4-.2-4.2-1-4.7-2-1.3-14.2-1.1-15.6.3zM408.7 395.7c-.4.3-.7 13.9-.7 30 0 18.4-.4 30.2-1 31.4-1.2 2.2-6.2 2.6-7.8.6-.7-.7-1.3-6.6-1.4-13.3l-.3-11.9h-10V462.2l3.7 3.3c8.8 8.1 21.3 6.2 25.9-3.9 1.7-3.7 1.9-7 1.9-34.2 0-22-.3-30.3-1.2-31.2-1.3-1.3-8-1.7-9.1-.5zM238.6 419.2c-2.5 3.6-2.3 35.8.3 41.4 4.5 9.9 15.9 13.1 25.1 7 5.8-3.8 7-7.5 7-21.5V434h-3.8c-5.9 0-7.2 2.1-7.2 11.3 0 4.1-.4 8.7-1 10.1-1.2 3.4-5.4 4.4-8 2.1-1.8-1.7-2-3.2-2-19.2 0-10.1-.4-18.2-1-19.4-1.5-2.8-7.4-2.6-9.4.3zM326.4 437.4c-1.7 1.3-1.9 2.9-2.2 15.1-.2 7.6-.1 14.8.3 16.2.5 2.2 1 2.4 5.8 2.1l5.2-.3.3-15.4c.2-13.3 0-15.6-1.4-17.2-2-2.3-5.3-2.4-8-.5z"/></svg>