<?xml version="1.0" encoding="iso-8859-1"?>
<!-- Generator: Adobe Illustrator 19.0.0, SVG Export Plug-In . SVG Version: 6.00 Build 0)  -->
<svg xmlns="http://www.w3.org/2000/svg" xmlns:xlink="http://www.w3.org/1999/xlink" version="1.1" id="Capa_1" x="0px" y="0px" viewBox="0 0 512 512" style="enable-background:new 0 0 512 512;" xml:space="preserve" width="512px" height="512px">
<g>
	<g>
		<path d="M286.015,232c-5.52,0-10,4.48-10,10s4.48,10,10,10s10-4.48,10-10S291.535,232,286.015,232z" fill="#515aa3"/>
	</g>
</g>
<g>
	<g>
		<path d="M246.015,172c-5.52,0-10,4.48-10,10s4.48,10,10,10s10-4.48,10-10S251.535,172,246.015,172z" fill="#515aa3"/>
	</g>
</g>
<g>
	<g>
		<path d="M216.015,427c-5.52,0-10,4.48-10,10c0,5.52,4.48,10,10,10s10-4.48,10-10C226.015,431.48,221.535,427,216.015,427z" fill="#515aa3"/>
	</g>
</g>
<g>
	<g>
		<path d="M435.817,323.938c0.332-1.675,0.226-3.379-0.275-4.96c-2.589-36.24-15.885-70.391-38.542-98.898    c-21.228-26.708-49.112-46.595-80.984-57.84V58.287c11.641-4.127,20-15.249,20-28.287c0-16.542-13.458-30-30-30h-100    c-16.542,0-30,13.458-30,30c0,13.038,8.359,24.159,20,28.287v103.954c-31.926,11.262-59.843,31.19-81.082,57.959    c-22.581,28.461-35.834,62.526-38.43,98.634c-0.575,1.717-0.663,3.505-0.312,5.194c-0.117,2.581-0.177,5.252-0.177,7.973    c0,99.251,80.748,179.999,180,179.999s180-80.748,180-180C436.015,329.306,435.936,326.611,435.817,323.938z M208.952,179.029    c4.198-1.29,7.063-5.167,7.063-9.559V60h10c5.522,0,10-4.477,10-10s-4.478-10-10-10h-20c-5.514,0-10-4.486-10-10s4.486-10,10-10    h100c5.514,0,10,4.486,10,10s-4.486,10-10,10h-20c-5.522,0-10,4.477-10,10s4.478,10,10,10h10v109.47    c0,4.392,2.865,8.269,7.063,9.559c57.959,17.809,100.732,67.402,110.706,126.338c-52.733-21.438-110.975-18.852-162.367,7.753    c-25.346,13.125-52.397,19.78-80.401,19.78c-25.715,0-50.629-5.628-74.213-16.738C103.089,252.54,147.451,197.926,208.952,179.029    z M256.015,492c-86.306,0-156.859-68.692-159.886-154.273c23.827,9.949,49.422,15.173,74.886,15.173    c30.797,0,61.779-7.614,89.598-22.02c49.272-25.507,105.566-26.408,155.346-2.701c0.03,1.273,0.056,2.547,0.056,3.821    C416.015,420.224,344.24,492,256.015,492z" fill="#515aa3"/>
	</g>
</g>
<g>
	<g>
		<path d="M361.257,365.572c-5.09-2.154-10.954,0.222-13.109,5.307C332.418,408.008,296.254,432,256.015,432    c-5.522,0-10,4.477-10,10s4.478,10,10,10c48.286,0,91.679-28.78,110.548-73.319C368.717,373.595,366.342,367.727,361.257,365.572z    " fill="#515aa3"/>
	</g>
</g>
<g>
	<g>
		<path d="M206.015,232c-16.542,0-30,13.458-30,30s13.458,30,30,30s30-13.458,30-30S222.557,232,206.015,232z M206.015,272    c-5.514,0-10-4.486-10-10c0-5.514,4.486-10,10-10s10,4.486,10,10C216.015,267.514,211.529,272,206.015,272z" fill="#515aa3"/>
	</g>
</g>
<g>
</g>
<g>
</g>
<g>
</g>
<g>
</g>
<g>
</g>
<g>
</g>
<g>
</g>
<g>
</g>
<g>
</g>
<g>
</g>
<g>
</g>
<g>
</g>
<g>
</g>
<g>
</g>
<g>
</g>
</svg>
