<?xml version="1.0" encoding="iso-8859-1"?>
<!-- Generator: Adobe Illustrator 19.0.0, SVG Export Plug-In . SVG Version: 6.00 Build 0)  -->
<svg xmlns="http://www.w3.org/2000/svg" xmlns:xlink="http://www.w3.org/1999/xlink" version="1.1" id="Capa_1" x="0px" y="0px" viewBox="0 0 480.093 480.093" style="enable-background:new 0 0 480.093 480.093;" xml:space="preserve" width="512px" height="512px">
<g>
	<g>
		<rect x="144.477" y="225.059" transform="matrix(0.7071 -0.7071 0.7071 0.7071 -99.0498 226.9913)" width="160.001" height="16" fill="#515aa3"/>
	</g>
</g>
<g>
	<g>
		<rect x="167.055" y="247.619" transform="matrix(0.7071 -0.7071 0.7071 0.7071 -108.3892 249.564)" width="160.001" height="16" fill="#515aa3"/>
	</g>
</g>
<g>
	<g>
		<path d="M88.046,72.046c-39.765,0-72,32.235-72,72c0,39.764,32.235,72,72,72s72-32.236,72-72    C160.046,104.282,127.811,72.046,88.046,72.046z M56.046,144.046c-0.343,17.366,2.644,34.638,8.8,50.88    c-19.948-9.08-32.765-28.963-32.8-50.88c0.035-21.917,12.852-41.8,32.8-50.88C58.691,109.409,55.704,126.68,56.046,144.046z     M88.046,200.046c-4.64,0-16-19.6-16-56c0-36.4,11.36-56,16-56s16,19.6,16,56C104.046,180.446,92.686,200.046,88.046,200.046z     M111.246,194.926c6.156-16.242,9.143-33.514,8.8-50.88c0.343-17.366-2.644-34.638-8.8-50.88    c19.948,9.08,32.765,28.963,32.8,50.88C144.012,165.964,131.194,185.846,111.246,194.926z" fill="#515aa3"/>
	</g>
</g>
<g>
	<g>
		<path d="M392.046,304.046c-48.601,0-88,39.399-88,88c0,48.601,39.399,88,88,88c48.601,0,88-39.399,88-88    S440.647,304.046,392.046,304.046z M392.046,464.046c-39.764,0-72-32.236-72-72c0-39.765,32.236-72,72-72    c39.765,0,72,32.235,72,72C464.046,431.811,431.811,464.046,392.046,464.046z" fill="#515aa3"/>
	</g>
</g>
<g>
	<g>
		<path d="M388.366,347.726L388.366,347.726c-8-8-22.72-5.6-34,5.68c-11.28,11.28-13.68,25.92-5.6,33.92    c3.185,3.159,7.515,4.891,12,4.8c8.389-0.455,16.262-4.19,21.92-10.4C393.966,370.446,396.366,355.806,388.366,347.726z     M371.406,370.366L371.406,370.366c-2.897,3.307-6.976,5.346-11.36,5.68c0.068-4.48,2.119-8.699,5.6-11.52    c2.722-2.99,6.398-4.941,10.4-5.52h0.64C376.544,363.353,374.637,367.455,371.406,370.366z" fill="#515aa3"/>
	</g>
</g>
<g>
	<g>
		<path d="M477.773,98.413c-0.015-0.016-0.031-0.031-0.046-0.046l-96-96c-3.111-3.137-8.177-3.158-11.314-0.046    c-0.016,0.015-0.031,0.031-0.046,0.046l-90.32,90.4l-2.32-2.4c-3.111-3.137-8.177-3.158-11.314-0.046    c-0.016,0.015-0.031,0.031-0.046,0.046l-264,264c-3.137,3.111-3.158,8.177-0.046,11.314c0.015,0.016,0.031,0.031,0.046,0.046    l112,112c3.111,3.137,8.177,3.158,11.314,0.046c0.016-0.015,0.031-0.031,0.046-0.046l264-264    c3.137-3.111,3.158-8.177,0.046-11.314c-0.015-0.016-0.031-0.031-0.046-0.046l-2.4-2.32l90.4-90.32    C480.863,106.615,480.884,101.55,477.773,98.413z M376.046,19.326l32,32c-7.113-1.189-14.372,1.033-19.6,6    c-5.311,5.743-7.491,13.714-5.84,21.36c0.56,5.2,0,6.72-1.28,8.4c-1.28,1.68-3.2,1.84-8,1.28    c-11.995-3.027-24.173,4.243-27.2,16.238c-0.908,3.598-0.908,7.364,0,10.962c0.56,5.2,0.48,6.72-1.2,8.4    c-1.68,1.68-3.28,1.76-8,1.2c-6.787-1.323-13.82,0.211-19.44,4.24l-26.16-25.36L376.046,19.326z M120.046,460.766l-100.72-100.72    l36.72-36.72l100.72,100.72L120.046,460.766z M168.046,412.766l-100.72-100.72l204.72-204.72l100.72,100.72L168.046,412.766z     M376.046,188.766l-47.52-47.52c2.04-0.336,4.12-0.336,6.16,0c11.946,3.041,24.095-4.178,27.136-16.124    c0.925-3.635,0.92-7.444-0.016-11.076c-0.48-5.12,0-6.64,1.28-8c1.28-1.36,3.2-1.84,8-1.28c7.646,1.651,15.617-0.529,21.36-5.84    c5.311-5.743,7.491-13.714,5.84-21.36c-0.56-5.2,0-6.72,1.28-8.4c1.28-1.68,3.2-1.84,8-1.28c4.89,0.807,9.905,0.338,14.56-1.36    l38.64,37.52L376.046,188.766z" fill="#515aa3"/>
	</g>
</g>
<g>
	<g>
		<path d="M200.046,64.046c-17.673,0-32,14.327-32,32s14.327,32,32,32s32-14.327,32-32S217.719,64.046,200.046,64.046z     M200.046,112.046c-8.837,0-16-7.163-16-16s7.163-16,16-16s16,7.163,16,16S208.883,112.046,200.046,112.046z" fill="#515aa3"/>
	</g>
</g>
<g>
	<g>
		<path d="M456.046,240.046c-13.255,0-24-10.745-24-24c0-4.418-3.582-8-8-8s-8,3.582-8,8c0,13.255-10.745,24-24,24    c-4.418,0-8,3.582-8,8s3.582,8,8,8c13.255,0,24,10.745,24,24c0,4.418,3.582,8,8,8s8-3.582,8-8c0-13.255,10.745-24,24-24    c4.418,0,8-3.582,8-8S460.465,240.046,456.046,240.046z M424.046,256.046c-2.274-3.032-4.968-5.726-8-8    c3.032-2.274,5.726-4.968,8-8c2.274,3.032,4.968,5.726,8,8C429.014,250.321,426.321,253.014,424.046,256.046z" fill="#515aa3"/>
	</g>
</g>
<g>
	<g>
		<rect x="256.046" y="384.046" width="16" height="16" fill="#515aa3"/>
	</g>
</g>
<g>
	<g>
		<rect x="256.046" y="416.046" width="16" height="16" fill="#515aa3"/>
	</g>
</g>
<g>
	<g>
		<rect x="240.046" y="400.046" width="16" height="16" fill="#515aa3"/>
	</g>
</g>
<g>
	<g>
		<rect x="272.046" y="400.046" width="16" height="16" fill="#515aa3"/>
	</g>
</g>
<g>
</g>
<g>
</g>
<g>
</g>
<g>
</g>
<g>
</g>
<g>
</g>
<g>
</g>
<g>
</g>
<g>
</g>
<g>
</g>
<g>
</g>
<g>
</g>
<g>
</g>
<g>
</g>
<g>
</g>
</svg>
