<?xml version="1.0" encoding="iso-8859-1"?>
<!-- Generator: Adobe Illustrator 19.0.0, SVG Export Plug-In . SVG Version: 6.00 Build 0)  -->
<svg xmlns="http://www.w3.org/2000/svg" xmlns:xlink="http://www.w3.org/1999/xlink" version="1.1" id="Capa_1" x="0px" y="0px" viewBox="0 0 512 512" style="enable-background:new 0 0 512 512;" xml:space="preserve" width="512px" height="512px">
<g>
	<g>
		<path d="M387.192,169.131L256.001,0L124.81,169.131c-27.988,36.083-39.729,80.832-33.06,126.008    c6.669,45.176,30.839,84.624,68.059,111.081c24.488,17.407,52.561,27.399,81.165,29.988V512h30.053v-75.792    c28.604-2.589,56.677-12.581,81.165-29.988c37.22-26.457,61.39-65.906,68.059-111.081    C426.919,249.964,415.179,205.213,387.192,169.131z M390.521,290.749c-5.462,36.998-25.258,69.307-55.741,90.974    c-19.279,13.703-41.27,21.792-63.753,24.283V348.64l98.962-56.313l-14.864-26.12l-84.098,47.855v-60.297l53.926-30.685    l-14.864-26.12l-39.062,22.227v-78.063h-30.053v78.063l-39.062-22.227l-14.863,26.12l53.925,30.685v60.297l-84.098-47.855    l-14.863,26.12l98.961,56.313v57.366c-22.484-2.49-44.474-10.579-63.753-24.283c-30.483-21.667-50.279-53.976-55.74-90.973    c-5.462-36.998,4.154-73.649,27.077-103.201L256.001,49.033l107.444,138.516C386.368,217.102,395.983,253.751,390.521,290.749z" fill="#515aa3"/>
	</g>
</g>
<g>
</g>
<g>
</g>
<g>
</g>
<g>
</g>
<g>
</g>
<g>
</g>
<g>
</g>
<g>
</g>
<g>
</g>
<g>
</g>
<g>
</g>
<g>
</g>
<g>
</g>
<g>
</g>
<g>
</g>
</svg>
